# xmcd
#
# Track frame offsets:
# 150
# 9637
# 20420
# 30611
# 39814
# 49519
# 60427
# 82489
# 94660
# 106058
# 115924
# 134573
#
# Disc length: 1931 seconds
#
# Revision: 0
# Processed by: cddbd v1.5.2PL0 Copyright (c) Steve Scherf et al.
# Submitted via: Audion 3.0.2 (http://www.panic.com/audion/)
#
DISCID=9107890c
DTITLE=LITTLE RICHARD - LITTLE RICHARD
DYEAR=1900
DGENRE=
TTITLE0=good golly miss molly
TTITLE1=tutti frutti
TTITLE2=lucille
TTITLE3=long tall sally
TTITLE4=she's got it
TTITLE5=whole lotta shakin'goin'on
TTITLE6=chains of love
TTITLE7=sittin'on the dock of a bay
TTITLE8=baby face
TTITLE9=short fat fannie
TTITLE10=i don't know what you got
TTITLE11=hound dog
EXTD=
EXTT0=
EXTT1=
EXTT2=
EXTT3=
EXTT4=
EXTT5=
EXTT6=
EXTT7=
EXTT8=
EXTT9=
EXTT10=
EXTT11=
PLAYORDER=
